<?xml version="1.0" standalone="no"?>
<!DOCTYPE svg PUBLIC "-//W3C//DTD SVG 20010904//EN"
 "http://www.w3.org/TR/2001/REC-SVG-20010904/DTD/svg10.dtd">
<svg version="1.0" xmlns="http://www.w3.org/2000/svg"
 width="512.000000pt" height="512.000000pt" viewBox="0 0 512.000000 512.000000"
 preserveAspectRatio="xMidYMid meet">
<metadata>
Created by potrace 1.14, written by Peter Selinger 2001-2017
</metadata>
<g transform="translate(0.000000,512.000000) scale(0.100000,-0.100000)"
fill="#000000" stroke="none">
<path d="M2720 4978 c-30 -4 -93 -13 -139 -18 -47 -5 -98 -14 -113 -19 -16 -6
-63 -13 -106 -16 -73 -6 -185 -25 -262 -45 -19 -5 -75 -14 -125 -21 -49 -7
-94 -15 -100 -20 -5 -4 -32 -9 -60 -12 -27 -2 -68 -10 -91 -15 -48 -13 -178
-72 -182 -84 -2 -4 -8 -8 -14 -8 -5 0 -22 -9 -36 -21 -25 -19 -26 -25 -23 -92
3 -80 14 -103 36 -73 8 10 18 15 24 12 5 -3 19 7 30 23 11 16 33 31 48 34 16
3 51 11 78 17 28 6 91 17 140 25 137 21 248 42 270 51 38 15 -3 -22 -128 -116
-67 -50 -144 -108 -170 -128 -27 -20 -57 -44 -68 -52 -11 -8 -32 -25 -47 -37
-15 -13 -31 -23 -36 -23 -5 0 -63 -14 -129 -32 l-120 -31 -20 -46 c-25 -58
-106 -185 -113 -178 -3 3 0 16 7 29 13 23 63 189 100 328 11 41 24 89 29 105
36 127 37 135 24 135 -7 0 -16 -11 -21 -24 -4 -14 -27 -45 -50 -70 -24 -24
-43 -50 -43 -55 0 -6 -17 -22 -39 -35 -21 -14 -47 -42 -57 -63 -25 -49 -111
-150 -133 -156 -12 -3 -18 -15 -19 -41 -1 -20 -4 -41 -7 -46 -3 -5 -1 -186 5
-402 9 -326 8 -406 -3 -470 -10 -54 -11 -78 -3 -78 26 0 229 126 241 150 12
23 7 50 -41 245 -29 121 -54 229 -54 240 0 48 23 -16 90 -249 63 -216 72 -255
66 -301 -3 -31 -38 -129 -84 -241 -74 -177 -81 -202 -116 -389 -21 -110 -49
-256 -62 -325 -13 -69 -24 -128 -24 -132 0 -13 23 -9 41 8 9 8 26 16 37 17 12
0 23 8 25 17 2 8 21 24 41 34 l38 20 58 -65 c56 -60 59 -62 60 -36 0 23 78
155 120 205 18 21 40 80 40 107 0 16 6 25 16 25 10 0 12 5 7 13 -8 13 -6 286
4 355 4 35 8 40 19 31 11 -9 18 -8 29 1 9 7 18 10 22 7 3 -4 11 -2 18 3 11 9
95 25 195 36 44 5 100 22 110 33 3 3 21 15 40 25 19 11 78 47 130 80 52 34
107 67 122 73 24 11 27 10 32 -13 8 -29 41 -44 95 -44 40 0 150 49 183 82 10
10 22 18 27 18 4 0 20 11 34 24 14 13 43 29 64 36 42 13 59 20 223 98 135 63
196 74 210 36 5 -13 14 -24 20 -24 40 0 350 43 371 51 16 6 39 7 60 2 32 -9
34 -13 60 -104 35 -126 64 -255 128 -569 22 -107 42 -220 46 -250 9 -77 26
-130 42 -130 8 0 11 -5 8 -11 -4 -6 0 -16 9 -22 10 -8 23 -56 38 -139 14 -77
30 -137 40 -150 l18 -23 6 23 c8 28 13 28 48 -8 16 -17 33 -27 37 -23 5 5 32
69 62 143 30 74 71 174 91 222 20 48 36 89 36 92 0 2 -18 7 -40 11 -22 4 -42
11 -45 16 -3 4 -10 73 -15 151 -4 79 -20 304 -35 502 l-27 358 27 28 c24 25
27 35 28 113 3 119 8 114 -203 177 -101 30 -188 59 -227 76 -68 30 -78 10 -44
-89 12 -33 16 -57 10 -57 -6 0 -59 33 -117 73 -59 40 -172 117 -252 171 -80
54 -155 108 -167 119 -13 11 -23 16 -23 11 2 -30 40 -62 160 -135 74 -44 141
-86 148 -91 42 -35 -28 -4 -278 124 -281 143 -282 143 -322 201 -25 34 -48 57
-59 57 -11 0 -19 5 -19 10 0 18 17 11 155 -55 75 -36 139 -65 143 -65 6 0 71
157 108 263 7 18 15 31 19 30 7 -2 250 -297 363 -440 31 -39 58 -70 60 -69 1
2 -59 126 -134 277 -132 265 -136 274 -125 310 23 75 11 84 -131 98 l-97 10
-69 68 c-38 38 -76 83 -85 99 -8 16 -27 39 -41 51 -14 13 -26 27 -26 33 0 13
-54 40 -77 39 -10 -1 -43 -6 -73 -11z m-326 -229 c-10 -12 -32 -36 -48 -53
-16 -17 -54 -60 -84 -96 -79 -93 -144 -160 -164 -171 -27 -15 -22 -3 18 41 20
22 35 42 33 43 -49 28 -46 29 -93 -26 -26 -28 -46 -57 -46 -63 0 -7 -4 -14 -9
-16 -14 -5 -105 -119 -144 -179 -19 -31 -52 -74 -73 -97 -20 -23 -42 -52 -48
-64 -6 -12 -27 -31 -46 -42 l-35 -21 19 29 c13 20 15 31 7 35 -6 4 -13 42 -15
85 -3 76 -3 77 28 98 34 24 186 142 323 251 61 48 89 65 96 58 17 -17 24 -13
23 12 -1 18 25 39 129 109 134 89 162 104 129 67z m-484 -41 c0 -4 -9 -8 -20
-8 -11 0 -20 4 -20 9 0 6 9 9 20 8 11 -1 20 -5 20 -9z m-153 -4 c-3 -3 -12 -4
-19 -1 -8 3 -5 6 6 6 11 1 17 -2 13 -5z m113 -24 c0 -5 -15 -10 -32 -10 -25 0
-29 3 -18 10 20 13 50 13 50 0z m587 -165 c27 -14 73 -55 48 -44 -99 47 -109
45 -121 -18 -5 -25 -11 -33 -21 -29 -9 4 -17 -1 -20 -14 -7 -27 -50 -37 -70
-17 -14 13 -12 17 13 33 16 10 32 22 35 27 3 4 28 23 55 42 27 18 49 33 50 34
0 1 15 -6 31 -14z m-347 -15 c0 -5 -5 -10 -11 -10 -5 0 -7 5 -4 10 3 6 8 10
11 10 2 0 4 -4 4 -10z m-25 -40 c-3 -5 -10 -10 -16 -10 -5 0 -9 5 -9 10 0 6 7
10 16 10 8 0 12 -4 9 -10z m455 6 c0 -3 -4 -8 -10 -11 -5 -3 -10 -1 -10 4 0 6
5 11 10 11 6 0 10 -2 10 -4z m66 -42 c17 -14 17 -15 1 -10 -10 3 -23 6 -28 6
-5 0 -9 5 -9 10 0 14 13 12 36 -6z m-536 -24 c0 -5 -7 -10 -15 -10 -8 0 -15 5
-15 10 0 6 7 10 15 10 8 0 15 -4 15 -10z m626 -25 c16 -8 22 -15 14 -15 -8 1
-24 7 -34 15 -25 19 -16 19 20 0z m-442 -16 c-3 -5 -10 -7 -15 -3 -5 3 -7 10
-3 15 3 5 10 7 15 3 5 -3 7 -10 3 -15z m171 -14 c6 -3 -15 -3 -47 -1 -32 2
-61 -1 -67 -7 -6 -6 -11 -7 -11 -3 0 22 34 33 74 24 23 -5 46 -11 51 -13z
m-415 12 c0 -2 -9 -14 -20 -27 -22 -26 -27 -20 -8 10 11 17 28 27 28 17z m200
-41 c0 -15 -7 -26 -17 -29 -10 -2 5 -2 32 1 58 5 48 5 105 2 34 -2 20 -6 -55
-15 -55 -6 -122 -15 -150 -18 l-50 -7 34 18 c19 9 47 29 64 45 36 33 37 33 37
3z m485 14 c18 -8 17 -9 -7 -9 -16 -1 -28 4 -28 9 0 12 8 12 35 0z m-115 -20
c-167 -21 -190 -22 -190 -12 0 12 56 18 170 19 74 0 74 0 20 -7z m-590 -105
c-7 -9 -15 -13 -19 -10 -3 3 1 10 9 15 21 14 24 12 10 -5z m-45 -25 c-3 -5
-11 -10 -16 -10 -6 0 -7 5 -4 10 3 6 11 10 16 10 6 0 7 -4 4 -10z m-55 -34 c0
-2 -7 -7 -16 -10 -8 -3 -12 -2 -9 4 6 10 25 14 25 6z m1595 -416 c3 -5 1 -10
-4 -10 -6 0 -11 5 -11 10 0 6 2 10 4 10 3 0 8 -4 11 -10z m-2053 -1372 c-6 -6
-15 -8 -19 -4 -4 4 -1 11 7 16 19 12 27 3 12 -12z m-42 -39 c0 -18 -2 -20 -15
-9 -13 11 -13 15 -3 21 18 12 18 12 18 -12z m-10 -45 c0 -21 -17 -17 -23 5 -3
14 -1 18 9 14 8 -3 14 -11 14 -19z m-45 -4 c3 -5 -1 -10 -9 -10 -8 0 -18 5
-21 10 -3 6 1 10 9 10 8 0 18 -4 21 -10z m25 -30 c0 -5 -4 -10 -10 -10 -5 0
-10 5 -10 10 0 6 5 10 10 10 6 0 10 -4 10 -10z"/>
<path d="M2205 4614 c-20 -15 -12 -17 19 -5 11 4 15 10 10 13 -5 4 -18 0 -29
-8z"/>
<path d="M2169 4588 c-6 -21 -5 -38 1 -38 5 0 8 9 7 20 -1 17 -5 26 -8 18z"/>
<path d="M2311 4404 c0 -11 3 -14 6 -6 3 7 2 16 -1 19 -3 4 -6 -2 -5 -13z"/>
<path d="M1570 2451 c-11 -21 -10 -23 4 -18 12 5 16 1 16 -14 0 -17 -5 -20
-21 -16 -18 5 -27 -9 -74 -105 l-54 -111 6 -83 c3 -46 10 -81 14 -78 10 6 9
104 -2 125 -5 10 0 32 12 60 12 24 29 62 40 85 27 58 53 86 67 72 8 -8 13 -6
18 8 4 10 12 22 18 27 8 5 7 9 -1 15 -7 4 -16 19 -21 32 l-9 24 -13 -23z"/>
<path d="M1600 2460 c0 -5 5 -10 10 -10 6 0 10 5 10 10 0 6 -4 10 -10 10 -5 0
-10 -4 -10 -10z"/>
<path d="M1622 2347 c-8 -10 -6 -13 9 -14 10 -1 19 5 19 13 0 17 -14 18 -28 1z"/>
<path d="M1761 2314 c0 -11 3 -14 6 -6 3 7 2 16 -1 19 -3 4 -6 -2 -5 -13z"/>
<path d="M1159 2215 c-3 -5 0 -53 7 -105 7 -52 15 -148 19 -213 4 -64 11 -119
14 -121 8 -5 -16 351 -27 409 -4 22 -10 36 -13 30z"/>
<path d="M871 1934 c0 -11 3 -14 6 -6 3 7 2 16 -1 19 -3 4 -6 -2 -5 -13z"/>
<path d="M1476 1800 c2 -85 11 -227 19 -315 8 -88 15 -180 15 -204 0 -51 21
-90 506 -941 l123 -215 38 -1 c21 -1 53 -2 71 -3 l32 -1 0 -60 0 -60 290 0
290 0 0 60 0 60 68 0 c66 0 67 1 93 38 15 20 48 77 74 127 26 50 53 97 60 105
7 8 25 42 40 75 15 33 30 62 33 65 15 11 67 125 68 149 1 14 0 21 -3 14 -2 -7
-11 -9 -19 -6 -8 3 -14 0 -14 -6 0 -6 -7 -11 -15 -11 -8 0 -22 -16 -31 -35 -9
-19 -21 -35 -28 -35 -6 0 -28 -18 -49 -40 -21 -23 -43 -38 -49 -34 -7 5 -9 2
-5 -9 4 -11 -5 -22 -29 -36 -42 -25 -41 -25 -47 -4 -3 11 -5 7 -6 -9 -1 -30
-15 -37 -25 -13 -3 8 -15 15 -26 15 -11 0 -20 7 -20 15 0 8 -4 15 -10 15 -5 0
-10 -5 -10 -11 0 -6 -7 -4 -15 5 -8 8 -15 19 -15 25 0 6 -4 11 -10 11 -5 0
-10 6 -10 14 0 8 -11 17 -25 20 -14 4 -25 13 -25 21 0 8 -7 15 -15 15 -9 0
-18 13 -22 31 -3 19 -14 34 -25 36 -10 3 -18 12 -18 19 0 8 -6 14 -14 14 -15
0 -32 35 -27 58 1 9 -5 11 -22 7 -17 -5 -26 -2 -30 9 -4 9 -13 16 -22 16 -8 0
-15 6 -15 14 0 15 -40 60 -61 69 -10 4 -9 6 4 6 10 1 15 6 12 12 -4 5 -12 8
-18 6 -7 -2 -17 1 -24 7 -34 30 -43 36 -57 36 -17 0 -32 33 -17 38 16 5 -11
42 -31 42 -10 0 -18 5 -18 10 0 6 -6 10 -14 10 -8 0 -16 6 -19 13 -3 9 -12 8
-38 -4 l-35 -17 -10 44 c-6 24 -7 44 -2 44 4 0 8 5 8 11 0 6 -7 9 -15 5 -9 -3
-15 0 -15 8 0 8 -8 13 -17 12 -14 -1 -18 7 -18 33 0 19 -6 36 -12 38 -8 3 -13
-4 -13 -19 0 -12 -5 -30 -10 -38 -7 -11 -10 -7 -10 18 0 23 -9 43 -30 65 -19
21 -30 27 -30 17 -1 -11 -4 -10 -12 5 -11 19 -11 19 -19 0 -7 -17 -8 -18 -8
-2 -1 9 -5 17 -10 17 -5 0 -12 16 -16 36 -4 22 -13 38 -24 41 -9 2 -21 14 -26
26 -6 12 -20 26 -32 32 -16 7 -23 18 -23 37 0 18 -5 28 -15 28 -8 0 -17 11
-21 25 -4 16 -13 25 -25 25 -10 0 -19 5 -19 10 0 6 -5 10 -11 10 -6 0 -18 7
-26 16 -14 13 -14 17 -2 25 9 5 10 9 2 9 -6 0 -24 5 -38 10 -25 10 -26 12 -12
33 12 18 12 24 1 35 -7 6 -17 12 -21 12 -12 0 -53 52 -59 76 -9 36 -44 38 -75
3 -15 -17 -25 -37 -22 -45 4 -10 0 -12 -11 -8 -9 4 -16 1 -16 -6 0 -7 -6 -10
-14 -7 -16 6 -36 -11 -36 -30 0 -7 6 -13 14 -13 17 0 26 -22 26 -61 0 -18 -4
-28 -10 -24 -6 4 -8 -7 -6 -29 4 -30 2 -34 -15 -33 -15 1 -19 9 -19 37 0 19 4
50 9 68 8 25 7 32 -2 29 -7 -2 -12 -9 -12 -15 0 -5 -2 -13 -5 -15 -3 -3 -6 27
-7 66 -2 40 -7 115 -12 167 -9 88 -9 84 -5 -60z m82 -337 c4 -36 -8 -42 -32
-17 -25 24 -21 56 7 52 17 -2 23 -11 25 -35z"/>
<path d="M1521 1834 c0 -11 3 -14 6 -6 3 7 2 16 -1 19 -3 4 -6 -2 -5 -13z"/>
<path d="M1201 1734 c0 -11 3 -14 6 -6 3 7 2 16 -1 19 -3 4 -6 -2 -5 -13z"/>
<path d="M1213 1645 c0 -22 2 -30 4 -17 2 12 2 30 0 40 -3 9 -5 -1 -4 -23z"/>
<path d="M1125 1599 c-11 -16 -1 -19 13 -3 7 8 8 14 3 14 -5 0 -13 -5 -16 -11z"/>
<path d="M1840 1600 c0 -5 5 -10 10 -10 6 0 10 5 10 10 0 6 -4 10 -10 10 -5 0
-10 -4 -10 -10z"/>
<path d="M4030 1560 c-13 -8 -13 -10 2 -10 9 0 20 5 23 10 8 13 -5 13 -25 0z"/>
<path d="M3910 1530 c0 -5 15 -10 33 -9 27 0 29 2 12 9 -28 12 -45 12 -45 0z"/>
<path d="M1980 1445 c0 -10 10 -15 33 -15 l32 0 -29 15 c-35 18 -36 18 -36 0z"/>
<path d="M3656 894 c-18 -18 -20 -24 -6 -24 5 0 14 9 20 20 13 24 7 26 -14 4z"/>
<path d="M3577 833 c-11 -13 -17 -27 -14 -30 3 -2 13 7 23 21 22 34 15 42 -9
9z"/>
<path d="M1502 810 c0 -19 2 -27 5 -17 2 9 2 25 0 35 -3 9 -5 1 -5 -18z"/>
<path d="M1502 745 c0 -16 2 -22 5 -12 2 9 2 23 0 30 -3 6 -5 -1 -5 -18z"/>
<path d="M3490 730 c-6 -11 -8 -20 -6 -20 3 0 10 9 16 20 6 11 8 20 6 20 -3 0
-10 -9 -16 -20z"/>
<path d="M1502 680 c0 -19 2 -27 5 -17 2 9 2 25 0 35 -3 9 -5 1 -5 -18z"/>
<path d="M3460 689 c0 -5 5 -7 10 -4 6 3 10 8 10 11 0 2 -4 4 -10 4 -5 0 -10
-5 -10 -11z"/>
<path d="M1507 540 c-4 -58 -10 -132 -12 -165 -2 -33 -7 -98 -10 -145 -7 -111
-23 -186 -41 -200 -26 -22 -15 -30 42 -30 l56 0 -7 228 c-4 125 -11 270 -14
322 l-7 95 -7 -105z"/>
</g>
</svg>
